<?plantuml 1.2026.1?><svg xmlns="http://www.w3.org/2000/svg" xmlns:xlink="http://www.w3.org/1999/xlink" contentStyleType="text/css" data-diagram-type="STATE" height="724px" preserveAspectRatio="none" style="width:3634px;height:724px;background:#FFFFFF;" version="1.1" viewBox="0 0 3634 724" width="3634px" zoomAndPan="magnify"><defs/><g><rect fill="#F1F1F1" height="40" rx="12.5" ry="12.5" style="stroke:#181818;stroke-width:0.5;" width="143.0415" x="1354.1" y="565.5"/><text fill="#000000" font-family="sans-serif" font-size="14" lengthAdjust="spacing" textLength="133.0415" x="1359.1" y="590.932">Trajectory Following</text><rect fill="#F1F1F1" height="40" rx="12.5" ry="12.5" style="stroke:#181818;stroke-width:0.5;" width="133.8575" x="2088.69" y="565.5"/><text fill="#000000" font-family="sans-serif" font-size="14" lengthAdjust="spacing" textLength="123.8575" x="2093.69" y="590.932">Open Loop Driving</text><rect fill="#F1F1F1" height="40" rx="12.5" ry="12.5" style="stroke:#181818;stroke-width:0.5;" width="104.4436" x="2224.4" y="7"/><text fill="#000000" font-family="sans-serif" font-size="14" lengthAdjust="spacing" textLength="94.4436" x="2229.4" y="32.432">Line Following</text><rect fill="#F1F1F1" height="40" rx="12.5" ry="12.5" style="stroke:#181818;stroke-width:0.5;" width="96.8837" x="2565.18" y="288"/><text fill="#000000" font-family="sans-serif" font-size="14" lengthAdjust="spacing" textLength="86.8837" x="2570.18" y="313.432">Storing Block</text><rect fill="#F1F1F1" height="40" rx="12.5" ry="12.5" style="stroke:#181818;stroke-width:0.5;" width="117.7436" x="1956.75" y="425"/><text fill="#000000" font-family="sans-serif" font-size="14" lengthAdjust="spacing" textLength="107.7436" x="1961.75" y="450.432">Waiting for Data</text><rect fill="#F1F1F1" height="40" rx="12.5" ry="12.5" style="stroke:#181818;stroke-width:0.5;" width="122.2935" x="274.47" y="565.5"/><text fill="#000000" font-family="sans-serif" font-size="14" lengthAdjust="spacing" textLength="112.2935" x="279.47" y="590.932">Dispensing Block</text><rect fill="#F1F1F1" height="40" rx="12.5" ry="12.5" style="stroke:#181818;stroke-width:0.5;" width="119.3956" x="2173.92" y="673.5"/><text fill="#000000" font-family="sans-serif" font-size="14" lengthAdjust="spacing" textLength="109.3956" x="2178.92" y="698.932">Discarding Block</text><rect fill="#F1F1F1" height="40" rx="12.5" ry="12.5" style="stroke:#181818;stroke-width:0.5;" width="151.5535" x="1450.84" y="147.5"/><text fill="#000000" font-family="sans-serif" font-size="14" lengthAdjust="spacing" textLength="141.5535" x="1455.84" y="172.932">Pressing Mine Button</text><rect fill="#F1F1F1" height="40" rx="12.5" ry="12.5" style="stroke:#181818;stroke-width:0.5;" width="122.1396" x="1792.55" y="288"/><text fill="#000000" font-family="sans-serif" font-size="14" lengthAdjust="spacing" textLength="112.1396" x="1797.55" y="313.432">Waiting for Block</text><rect fill="#F1F1F1" height="40" rx="12.5" ry="12.5" style="stroke:#181818;stroke-width:0.5;" width="152.5474" x="3081.34" y="565.5"/><text fill="#000000" font-family="sans-serif" font-size="14" lengthAdjust="spacing" textLength="142.5474" x="3086.34" y="590.932">Moving Rack &amp; Pinion</text><!--link trajectory to data--><g class="link" data-entity-1="ent0002" data-entity-2="ent0006" data-link-type="dependency" data-source-line="5" id="lnk2"><path d="M1417.92,565.03 C1411.36,544.83 1405.45,513.64 1422.62,495 C1458.28,456.27 1807.2404,448.2213 1950.3104,446.5213" fill="none" id="trajectory-to-data" style="stroke:#181818;stroke-width:1;"/><polygon fill="#181818" points="1956.31,446.45,1947.2631,442.5572,1951.3104,446.5094,1947.3582,450.5567,1956.31,446.45" style="stroke:#181818;stroke-width:1;"/><text fill="#000000" font-family="sans-serif" font-size="13" lengthAdjust="spacing" textLength="365.4304" x="1423.62" y="509.897">EVENT: wheel error &lt; threshold &amp; segment == max segment</text><text fill="#000000" font-family="sans-serif" font-size="13" lengthAdjust="spacing" textLength="168.8182" x="1525.3061" y="527.603">SERVICE: stop drive motors;</text></g><!--link data to trajectory--><g class="link" data-entity-1="ent0006" data-entity-2="ent0002" data-link-type="dependency" data-source-line="20" id="lnk9"><path d="M1956.37,447.33 C1772.08,451.75 1219.73,467.28 1193.62,495 C1142.11,549.67 1261.8278,570.793 1347.6278,579.083" fill="none" id="data-to-trajectory" style="stroke:#181818;stroke-width:1;"/><polygon fill="#181818" points="1353.6,579.66,1345.0264,574.813,1348.6232,579.1791,1344.257,582.7759,1353.6,579.66" style="stroke:#181818;stroke-width:1;"/><text fill="#000000" font-family="sans-serif" font-size="13" lengthAdjust="spacing" textLength="204.7112" x="1194.62" y="509.897">EVENT: path data entered by user</text><text fill="#000000" font-family="sans-serif" font-size="13" lengthAdjust="spacing" textLength="184.8212" x="1207.945" y="527.603">SERVICE: create path variables</text></g><!--link trajectory to discarding--><!--link drive to data--><g class="link" data-entity-1="ent0003" data-entity-2="ent0006" data-link-type="dependency" data-source-line="9" id="lnk4"><path d="M2151.4,565.17 C2146.2,545.39 2135.63,514.81 2116.62,495 C2104.6,482.49 2094.1644,475.3143 2078.5744,467.9443" fill="none" id="drive-to-data" style="stroke:#181818;stroke-width:1;"/><polygon fill="#181818" points="2073.15,465.38,2079.5771,472.8428,2077.6703,467.5169,2082.9962,465.6102,2073.15,465.38" style="stroke:#181818;stroke-width:1;"/><text fill="#000000" font-family="sans-serif" font-size="13" lengthAdjust="spacing" textLength="184.7952" x="2140.38" y="509.897">EVENT: software stop received</text><text fill="#000000" font-family="sans-serif" font-size="13" lengthAdjust="spacing" textLength="168.8182" x="2151.7485" y="527.603">SERVICE: stop drive motors;</text></g><!--link drive to data--><g class="link" data-entity-1="ent0003" data-entity-2="ent0006" data-link-type="dependency" data-source-line="10" id="lnk5"><path d="M2222.91,575.26 C2289.19,563.43 2375.43,539 2337.62,495 C2304.4,456.35 2164.3288,447.9485 2080.7888,446.2985" fill="none" id="drive-to-data-1" style="stroke:#181818;stroke-width:1;"/><polygon fill="#181818" points="2074.79,446.18,2083.7093,450.3569,2079.789,446.2787,2083.8672,442.3585,2074.79,446.18" style="stroke:#181818;stroke-width:1;"/><text fill="#000000" font-family="sans-serif" font-size="13" lengthAdjust="spacing" textLength="236.4572" x="2347.8" y="509.897">EVENT: distance to wall &lt; stop distance</text><text fill="#000000" font-family="sans-serif" font-size="13" lengthAdjust="spacing" textLength="168.8182" x="2384.9995" y="527.603">SERVICE: stop drive motors;</text></g><!--link data to drive--><g class="link" data-entity-1="ent0006" data-entity-2="ent0003" data-link-type="dependency" data-source-line="21" id="lnk10"><path d="M1956.49,449.85 C1925.25,455.26 1889.36,467.54 1869.62,495 C1860.02,508.35 1859,519.44 1869.62,532 C1895.52,562.63 2008.2,554.57 2047.62,562 C2060.79,564.48 2068.9633,566.0797 2082.4133,568.8497" fill="none" id="data-to-drive" style="stroke:#181818;stroke-width:1;"/><polygon fill="#181818" points="2088.29,570.06,2080.2819,564.3268,2083.3928,569.0514,2078.6681,572.1623,2088.29,570.06" style="stroke:#181818;stroke-width:1;"/><text fill="#000000" font-family="sans-serif" font-size="13" lengthAdjust="spacing" textLength="234.3122" x="1870.62" y="509.897">EVENT: drive direction entered by user</text><text fill="#000000" font-family="sans-serif" font-size="13" lengthAdjust="spacing" textLength="220.3372" x="1880.9875" y="527.603">SERVICE: set x_dot, y_dot, theta_dot;</text></g><!--link followLine to data--><g class="link" data-entity-1="ent0004" data-entity-2="ent0006" data-link-type="dependency" data-source-line="13" id="lnk6"><path d="M2316.67,47.43 C2386.77,84.28 2520.04,168.66 2473.62,258 C2398.04,403.46 2186.2774,435.012 2080.5774,441.862" fill="none" id="followLine-to-data" style="stroke:#181818;stroke-width:1;"/><polygon fill="#181818" points="2074.59,442.25,2083.8298,445.6596,2079.5795,441.9266,2083.3125,437.6763,2074.59,442.25" style="stroke:#181818;stroke-width:1;"/><text fill="#000000" font-family="sans-serif" font-size="13" lengthAdjust="spacing" textLength="184.7952" x="2484.18" y="235.897">EVENT: software stop received</text><text fill="#000000" font-family="sans-serif" font-size="13" lengthAdjust="spacing" textLength="168.8182" x="2495.5485" y="253.603">SERVICE: stop drive motors;</text></g><!--reverse link followLine to data--><g class="link" data-entity-1="ent0004" data-entity-2="ent0006" data-link-type="dependency" data-source-line="23" id="lnk14"><path d="M2276.2771,53.1393 C2275.1671,124.8193 2269.74,368.72 2246.62,395 C2224.37,420.27 2135.58,433.29 2074.79,439.37" fill="none" id="followLine-backto-data" style="stroke:#181818;stroke-width:1;"/><polygon fill="#181818" points="2276.37,47.14,2272.2311,56.077,2276.2926,52.1394,2280.2302,56.2009,2276.37,47.14" style="stroke:#181818;stroke-width:1;"/><text fill="#000000" font-family="sans-serif" font-size="13" lengthAdjust="spacing" textLength="190.7752" x="2271.52" y="235.897">EVENT user asked to line follow</text><text fill="#000000" font-family="sans-serif" font-size="13" lengthAdjust="spacing" textLength="91.7151" x="2324.43" y="253.603">SERVICE: none;</text></g><!--link followLine to pressButton--><g class="link" data-entity-1="ent0004" data-entity-2="ent0009" data-link-type="dependency" data-source-line="14" id="lnk7"><path d="M2223.98,28.99 C2132.39,31.64 1938.23,41.36 1778.62,77 C1703.63,93.74 1625.7989,123.9095 1576.2389,144.7995" fill="none" id="followLine-to-pressButton" style="stroke:#181818;stroke-width:1;"/><polygon fill="#181818" points="1570.71,147.13,1580.557,147.3202,1575.3174,145.1879,1577.4497,139.9483,1570.71,147.13" style="stroke:#181818;stroke-width:1;"/><text fill="#000000" font-family="sans-serif" font-size="13" lengthAdjust="spacing" textLength="236.4572" x="1894.9106" y="91.897">EVENT: distance to wall &lt; stop distance</text><text fill="#000000" font-family="sans-serif" font-size="13" lengthAdjust="spacing" textLength="467.0384" x="1783" y="109.603">SERVICE: stop drive motors, read color sensor, set targetPress to mine block;</text></g><!--link storing to data--><g class="link" data-entity-1="ent0005" data-entity-2="ent0006" data-link-type="dependency" data-source-line="17" id="lnk8"><path d="M2602.95,328.22 C2590.46,348.68 2567.71,380.09 2538.62,395 C2458.98,435.81 2200.0898,442.7862 2080.7698,443.8562" fill="none" id="storing-to-data" style="stroke:#181818;stroke-width:1;"/><polygon fill="#181818" points="2074.77,443.91,2083.8055,447.8291,2079.7698,443.8652,2083.7338,439.8295,2074.77,443.91" style="stroke:#181818;stroke-width:1;"/><text fill="#000000" font-family="sans-serif" font-size="13" lengthAdjust="spacing" textLength="184.7952" x="2581.74" y="372.897">EVENT: software stop received</text><text fill="#000000" font-family="sans-serif" font-size="13" lengthAdjust="spacing" textLength="171.3532" x="2591.841" y="390.603">SERVICE: stop shovel motor;</text></g><!--reverse link pressButton to data--><g class="link" data-entity-1="ent0009" data-entity-2="ent0006" data-link-type="dependency" data-source-line="22" id="lnk12"><path d="M1444.5821,172.2506 C1302.5321,181.2806 1025.33,213.45 1118.62,328 C1171.76,393.26 1764.91,430.56 1956.4,440.97" fill="none" id="pressButton-backto-data" style="stroke:#181818;stroke-width:1;"/><polygon fill="#181818" points="1450.57,171.87,1441.3344,168.449,1445.5801,172.1872,1441.8419,176.4329,1450.57,171.87" style="stroke:#181818;stroke-width:1;"/><text fill="#000000" font-family="sans-serif" font-size="13" lengthAdjust="spacing" textLength="301.9772" x="1119.62" y="304.397">EVENT number of button presses entered by user</text><text fill="#000000" font-family="sans-serif" font-size="13" lengthAdjust="spacing" textLength="156.8842" x="1195.5465" y="322.103">SERVICE: set numPresses;</text></g><!--link pressButton to data--><g class="link" data-entity-1="ent0009" data-entity-2="ent0006" data-link-type="dependency" data-source-line="39" id="lnk24"><path d="M1516.3,187.99 C1500.49,220.86 1475.39,287.68 1508.62,328 C1565.18,396.64 1828.9443,427.7902 1950.2743,438.7502" fill="none" id="pressButton-to-data" style="stroke:#181818;stroke-width:1;"/><polygon fill="#181818" points="1956.25,439.29,1947.6464,434.4965,1951.2703,438.8402,1946.9266,442.4641,1956.25,439.29" style="stroke:#181818;stroke-width:1;"/><text fill="#000000" font-family="sans-serif" font-size="13" lengthAdjust="spacing" textLength="181.3111" x="1549.5041" y="304.397">EVENT software stop received</text><text fill="#000000" font-family="sans-serif" font-size="13" lengthAdjust="spacing" textLength="261.0793" x="1513" y="322.103">SERVICE: write store angle to button servo;</text></g><!--link data to dispensing--><g class="link" data-entity-1="ent0006" data-entity-2="ent0007" data-link-type="dependency" data-source-line="24" id="lnk15"><path d="M1956.37,446.36 C1633.9,448.49 103.39,460.37 69.62,495 C6,560.23 171.2673,577.6233 268.2073,582.4233" fill="none" id="data-to-dispensing" style="stroke:#181818;stroke-width:1;"/><polygon fill="#181818" points="274.2,582.72,265.4088,578.2798,269.2061,582.4727,265.0132,586.27,274.2,582.72" style="stroke:#181818;stroke-width:1;"/><text fill="#000000" font-family="sans-serif" font-size="13" lengthAdjust="spacing" textLength="218.4652" x="70.62" y="509.897">EVENT user asked to dispense block</text><text fill="#000000" font-family="sans-serif" font-size="13" lengthAdjust="spacing" textLength="189.3712" x="88.547" y="527.603">SERVICE: start conveyor motor;</text></g><!--link dispensing to data--><g class="link" data-entity-1="ent0007" data-entity-2="ent0006" data-link-type="dependency" data-source-line="29" id="lnk18"><path d="M327.85,565.22 C321.08,544.88 314.85,513.29 332.62,495 C361.5,465.27 1655.0203,449.814 1950.3403,446.664" fill="none" id="dispensing-to-data" style="stroke:#181818;stroke-width:1;"/><polygon fill="#181818" points="1956.34,446.6,1947.2978,442.6962,1951.3403,446.6533,1947.3832,450.6958,1956.34,446.6" style="stroke:#181818;stroke-width:1;"/><text fill="#000000" font-family="sans-serif" font-size="13" lengthAdjust="spacing" textLength="184.7952" x="428.5851" y="509.897">EVENT: software stop received</text><text fill="#000000" font-family="sans-serif" font-size="13" lengthAdjust="spacing" textLength="374.7253" x="337" y="527.603">SERVICE: stop conveyor motor and write closed to gate servo;</text></g><!--link dispensing to data--><g class="link" data-entity-1="ent0007" data-entity-2="ent0006" data-link-type="dependency" data-source-line="31" id="lnk20"><path d="M397.24,581.89 C473.63,577.32 607.13,564.96 716.62,532 C752.97,521.05 756.77,504.17 793.62,495 C906.87,466.8 1721.0309,451.0029 1950.2509,447.0729" fill="none" id="dispensing-to-data-1" style="stroke:#181818;stroke-width:1;"/><polygon fill="#181818" points="1956.25,446.97,1947.1828,443.1249,1951.2507,447.0557,1947.3199,451.1237,1956.25,446.97" style="stroke:#181818;stroke-width:1;"/><text fill="#000000" font-family="sans-serif" font-size="13" lengthAdjust="spacing" textLength="340.2623" x="811.8515" y="509.897">EVENT: reflectance sensor triggered &amp; no blocks remain</text><text fill="#000000" font-family="sans-serif" font-size="13" lengthAdjust="spacing" textLength="374.7253" x="798" y="527.603">SERVICE: stop conveyor motor and write closed to gate servo;</text></g><!--link data to discarding--><g class="link" data-entity-1="ent0006" data-entity-2="ent0008" data-link-type="dependency" data-source-line="25" id="lnk16"><path d="M1956.37,447.65 C1920.72,452.04 1877.7,464.03 1853.62,495 C1822.51,535.01 1818.82,569.53 1850.62,609 C1890.48,658.49 2070.0208,679.7112 2167.4708,687.8412" fill="none" id="data-to-discarding" style="stroke:#181818;stroke-width:1;"/><polygon fill="#181818" points="2173.45,688.34,2164.8137,683.6056,2168.4673,687.9243,2164.1486,691.5779,2173.45,688.34" style="stroke:#181818;stroke-width:1;"/><text fill="#000000" font-family="sans-serif" font-size="13" lengthAdjust="spacing" textLength="208.4422" x="1855.377" y="581.897">EVENT user asked to discard block</text><text fill="#000000" font-family="sans-serif" font-size="13" lengthAdjust="spacing" textLength="215.9562" x="1855" y="599.603">SERVICE: write out to discard servo;</text></g><!--link discarding to data--><g class="link" data-entity-1="ent0008" data-entity-2="ent0006" data-link-type="dependency" data-source-line="34" id="lnk21"><path d="M2293.8,683.09 C2419.8,661.05 2692.02,599.9 2595.62,495 C2560.87,457.19 2221.6994,448.6135 2080.9194,446.6535" fill="none" id="discarding-to-data" style="stroke:#181818;stroke-width:1;"/><polygon fill="#181818" points="2074.92,446.57,2083.8634,450.6949,2079.9195,446.6396,2083.9748,442.6957,2074.92,446.57" style="stroke:#181818;stroke-width:1;"/><text fill="#000000" font-family="sans-serif" font-size="13" lengthAdjust="spacing" textLength="184.7952" x="2712.418" y="581.897">EVENT: software stop received</text><text fill="#000000" font-family="sans-serif" font-size="13" lengthAdjust="spacing" textLength="391.6512" x="2612.37" y="599.603">SERVICE: stop rack motor and write store angle to discard servo;</text></g><!--link discarding to data--><g class="link" data-entity-1="ent0008" data-entity-2="ent0006" data-link-type="dependency" data-source-line="36" id="lnk23"><path d="M2293.56,691.95 C2557.19,688.54 3593.19,664.34 3429.62,495 C3381.86,445.56 2342.25,445.1046 2080.57,445.7746" fill="none" id="discarding-to-data-1" style="stroke:#181818;stroke-width:1;"/><polygon fill="#181818" points="2074.57,445.79,2083.5802,449.7669,2079.57,445.7772,2083.5597,441.767,2074.57,445.79" style="stroke:#181818;stroke-width:1;"/><text fill="#000000" font-family="sans-serif" font-size="13" lengthAdjust="spacing" textLength="194.4802" x="3428.73" y="581.897">EVENT: timer elapsed &amp; servo in</text><text fill="#000000" font-family="sans-serif" font-size="13" lengthAdjust="spacing" textLength="91.7151" x="3483.4925" y="599.603">SERVICE: none;</text></g><!--link data to movingRack--><g class="link" data-entity-1="ent0006" data-entity-2="ent0011" data-link-type="dependency" data-source-line="26" id="lnk17"><path d="M2074.82,448.05 C2225.54,453.61 2615.6,470.24 2668.62,495 C2689.4,504.71 2683.88,522.18 2704.62,532 C2775.17,565.41 2977.43,550.31 3054.62,562 C3063.21,563.3 3066.282,563.7363 3075.162,565.4763" fill="none" id="data-to-movingRack" style="stroke:#181818;stroke-width:1;"/><polygon fill="#181818" points="3081.05,566.63,3072.9871,560.974,3076.1433,565.6686,3071.4488,568.8247,3081.05,566.63" style="stroke:#181818;stroke-width:1;"/><text fill="#000000" font-family="sans-serif" font-size="13" lengthAdjust="spacing" textLength="252.3952" x="2738.081" y="509.897">EVENT user wrote target position for rack</text><text fill="#000000" font-family="sans-serif" font-size="13" lengthAdjust="spacing" textLength="317.3173" x="2709" y="527.603">SERVICE start rack motor and set target limit switch;</text></g><!--link movingRack to data--><g class="link" data-entity-1="ent0011" data-entity-2="ent0006" data-link-type="dependency" data-source-line="49" id="lnk30"><path d="M3118.48,565.02 C3101.83,555.95 3082.6,544.43 3066.62,532 C3048.51,517.91 3051.53,504.43 3030.62,495 C2943.62,455.77 2284.5798,447.8945 2080.7898,446.3845" fill="none" id="movingRack-to-data" style="stroke:#181818;stroke-width:1;"/><polygon fill="#181818" points="2074.79,446.34,2083.7601,450.4066,2079.7899,446.377,2083.8194,442.4068,2074.79,446.34" style="stroke:#181818;stroke-width:1;"/><text fill="#000000" font-family="sans-serif" font-size="13" lengthAdjust="spacing" textLength="175.8381" x="3067.62" y="509.897">Event software stop received</text><text fill="#000000" font-family="sans-serif" font-size="13" lengthAdjust="spacing" textLength="157.7812" x="3080.0285" y="527.603">SERVICE: stop rack motor;</text></g><!--link movingRack to data--><g class="link" data-entity-1="ent0011" data-entity-2="ent0006" data-link-type="dependency" data-source-line="50" id="lnk31"><path d="M3214.19,565.21 C3228.96,557.31 3243.1,546.51 3251.62,532 C3259.94,517.82 3263.01,506.86 3251.62,495 C3210.41,452.13 2321.2,446.7767 2080.67,446.1067" fill="none" id="movingRack-to-data-1" style="stroke:#181818;stroke-width:1;"/><polygon fill="#181818" points="2074.67,446.09,2083.6588,450.1151,2079.67,446.1039,2083.6811,442.1151,2074.67,446.09" style="stroke:#181818;stroke-width:1;"/><text fill="#000000" font-family="sans-serif" font-size="13" lengthAdjust="spacing" textLength="134.6281" x="3271.6365" y="509.897">target limit switch low</text><text fill="#000000" font-family="sans-serif" font-size="13" lengthAdjust="spacing" textLength="157.7812" x="3263.44" y="527.603">SERVICE: stop rack motor;</text></g><!--link dispensing to dispensing--><g class="link" data-entity-1="ent0007" data-entity-2="ent0007" data-link-type="dependency" data-source-line="30" id="lnk19"><path d="M397.11,575.38 C416.48,575.54 431.76,578.91 431.76,585.5 C431.76,592.09 422.4798,595.4104 403.1098,595.5704" fill="none" id="dispensing-to-dispensing" style="stroke:#181818;stroke-width:1;"/><polygon fill="#181818" points="397.11,595.62,406.1427,599.5455,402.1098,595.5787,406.0767,591.5458,397.11,595.62" style="stroke:#181818;stroke-width:1;"/><text fill="#000000" font-family="sans-serif" font-size="13" lengthAdjust="spacing" textLength="320.9833" x="437.76" y="581.897">EVENT: reflectance sensor triggered &amp; blocks remain</text><text fill="#000000" font-family="sans-serif" font-size="13" lengthAdjust="spacing" textLength="91.7151" x="555.7741" y="599.603">SERVICE: none;</text></g><!--link discarding to discarding--><g class="link" data-entity-1="ent0008" data-entity-2="ent0008" data-link-type="dependency" data-source-line="35" id="lnk22"><path d="M2293.72,683.38 C2313.02,683.48 2328.31,686.86 2328.31,693.5 C2328.31,700.14 2319.0199,703.4889 2299.7199,703.5889" fill="none" id="discarding-to-discarding" style="stroke:#181818;stroke-width:1;"/><polygon fill="#181818" points="2293.72,703.62,2302.7406,707.5733,2298.7199,703.5941,2302.6992,699.5734,2293.72,703.62" style="stroke:#181818;stroke-width:1;"/><text fill="#000000" font-family="sans-serif" font-size="13" lengthAdjust="spacing" textLength="203.6842" x="2351.2685" y="689.897">EVENT: timer elapsed &amp; servo out</text><text fill="#000000" font-family="sans-serif" font-size="13" lengthAdjust="spacing" textLength="237.6012" x="2337.69" y="707.603">SERVICE: start timer and write servo in;</text></g><!--link pressButton to pressButton--><g class="link" data-entity-1="ent0009" data-entity-2="ent0009" data-link-type="dependency" data-source-line="40" id="lnk25"><path d="M1602.73,154.14 C1622.49,154.96 1637.39,159.41 1637.39,167.5 C1637.39,175.59 1628.4848,179.7912 1608.7248,180.6112" fill="none" id="pressButton-to-pressButton" style="stroke:#181818;stroke-width:1;"/><polygon fill="#181818" points="1602.73,180.86,1611.8881,184.4834,1607.7257,180.6527,1611.5564,176.4903,1602.73,180.86" style="stroke:#181818;stroke-width:1;"/><text fill="#000000" font-family="sans-serif" font-size="13" lengthAdjust="spacing" textLength="303.9922" x="1719.518" y="163.897">EVENT timer elapsed &amp; numPressed &lt; targetPress</text><text fill="#000000" font-family="sans-serif" font-size="13" lengthAdjust="spacing" textLength="456.2483" x="1646.77" y="181.603">SERVICE: if servo out write in and vice versa, increment count, restart timer</text></g><!--link pressButton to waitingForBlock--><g class="link" data-entity-1="ent0009" data-entity-2="ent0010" data-link-type="dependency" data-source-line="41" id="lnk26"><path d="M1519.12,187.79 C1512.73,207.84 1506.96,238.9 1523.62,258 C1555.91,295.02 1694.07,280.52 1742.62,288 C1758.75,290.49 1770.2557,292.3593 1786.4057,295.1193" fill="none" id="pressButton-to-waitingForBlock" style="stroke:#181818;stroke-width:1;"/><polygon fill="#181818" points="1792.32,296.13,1784.1224,290.6711,1787.3915,295.2877,1782.7748,298.5567,1792.32,296.13" style="stroke:#181818;stroke-width:1;"/><text fill="#000000" font-family="sans-serif" font-size="13" lengthAdjust="spacing" textLength="303.9922" x="1524.62" y="235.897">EVENT timer elapsed &amp; numPressed &gt; targetPress</text><text fill="#000000" font-family="sans-serif" font-size="13" lengthAdjust="spacing" textLength="280.7742" x="1539.609" y="253.603">SERVICE: reset press variables and start timer;</text></g><!--link waitingForBlock to pressButton--><g class="link" data-entity-1="ent0010" data-entity-2="ent0009" data-link-type="dependency" data-source-line="45" id="lnk28"><path d="M1855.57,287.68 C1856.4,268.07 1854.29,238.19 1836.62,221 C1804.14,189.41 1689.4285,177.0818 1608.5685,172.0618" fill="none" id="waitingForBlock-to-pressButton" style="stroke:#181818;stroke-width:1;"/><polygon fill="#181818" points="1602.58,171.69,1611.3149,176.24,1607.5704,171.9998,1611.8106,168.2554,1602.58,171.69" style="stroke:#181818;stroke-width:1;"/><text fill="#000000" font-family="sans-serif" font-size="13" lengthAdjust="spacing" textLength="227.6042" x="1919.0145" y="235.897">EVENT timer elapsed &amp; hall effect low</text><text fill="#000000" font-family="sans-serif" font-size="13" lengthAdjust="spacing" textLength="356.4733" x="1857.96" y="253.603">SERVICE: start timer and set targetPressed to kill silverfish;</text></g><!--link waitingForBlock to data--><g class="link" data-entity-1="ent0010" data-entity-2="ent0006" data-link-type="dependency" data-source-line="44" id="lnk27"><path d="M1814.8,328.28 C1803.64,335.9 1792.81,345.79 1786.62,358 C1779.17,372.66 1776.28,382.21 1786.62,395 C1807.58,420.92 1889.698,433.1615 1950.298,439.0315" fill="none" id="waitingForBlock-to-data" style="stroke:#181818;stroke-width:1;"/><polygon fill="#181818" points="1956.27,439.61,1947.6976,434.7609,1951.2933,439.1279,1946.9263,442.7236,1956.27,439.61" style="stroke:#181818;stroke-width:1;"/><text fill="#000000" font-family="sans-serif" font-size="13" lengthAdjust="spacing" textLength="181.3111" x="1787.62" y="372.897">EVENT software stop received</text><text fill="#000000" font-family="sans-serif" font-size="13" lengthAdjust="spacing" textLength="91.7151" x="1835.798" y="390.603">SERVICE: none;</text></g><!--link waitingForBlock to data--><g class="link" data-entity-1="ent0010" data-entity-2="ent0006" data-link-type="dependency" data-source-line="46" id="lnk29"><path d="M1915.18,323.29 C1936.68,330.75 1959.66,341.81 1976.62,358 C1995.71,376.22 2004.6537,399.7453 2009.8237,418.9953" fill="none" id="waitingForBlock-to-data-1" style="stroke:#181818;stroke-width:1;"/><polygon fill="#181818" points="2011.38,424.79,2012.9087,415.0605,2010.0831,419.9611,2005.1825,417.1355,2011.38,424.79" style="stroke:#181818;stroke-width:1;"/><text fill="#000000" font-family="sans-serif" font-size="13" lengthAdjust="spacing" textLength="233.5842" x="2001.57" y="372.897">EVENT timer elapsed &amp; hall effect high</text><text fill="#000000" font-family="sans-serif" font-size="13" lengthAdjust="spacing" textLength="91.7151" x="2075.8846" y="390.603">SERVICE: none;</text></g><?plantuml-src hLPDJzmm4BtdLumuS5h-m6xXG06f4hG843sqLULD9ebBOaUsDs7_VSTsFfnisDrIJeaT-xtnc-UPv3n1mB8oMqXGnufNXaiHHTemWt3ofDWVZ8rKMxYHHI4RBh8JO1fC_o4QNk7ix08IPXWiuVhv-klJ4feSiG1KIYhu12PNg7DP970A6hCIXO7pSoZPQp_yAU3n-k7vo-Vh9MWZAqWKhn5AIGHwDIPBVkGyIL3y8bQkOwOI2g-F_Lk50cubGLmHH1UuWuiyw6wuMgQcOGezjS8OQLroAAWnMWz6CHacOWGZeM55GGBupTty0TZk8BTSu4J-r8tiXsXu_R3pJ20hIfg-t1WZ1NpGuHOK2qiWbWNvGgFGKYteQS0mbQ6vjumMkRGnh0iPlmnoF180wG2NTjgfeVrCr3x_GmSoPqr-TK4EZDyPDnOtfM2l2DSRYLuYnsBf0b_sf1KpkO-3Z8sA-DPRs6XK8zwOb20IjxXcYhDrWNe0zgeDihjXmka8zgBkHRPwllvEf5d0rZzCZeRPrrLBi9dDBeXDkIOmcSBQVt2BK1-aeuttVcd04DYf8t2RcNuXACfoOJ_vLID48GLsE8cxutIbjSt4F4wxe7NC9BjC6VARg75BMMmJFAZSbu-teUs26UH6SKgVt9Xm6UsjPO1VIbk07XZj7U4tIj9cRtgefEOkgTPdYerusWEuMHSyC944DuOqBBa1tN0JvuDphmR9Xkiow1W5ahx_qenLTO5vKU92QYzVPgFfH9bmxcHrILnfGGPtTSHN1xfWFCkSzqvz4ZIjAXaNSuxPFTMnq4BkGN_FQODCT0uRPQBhMe43tv-9YJryNBOg8esp0kSiEk7jXpsvuIKv5GjMQVIDcpOwm-zUCBysu7PhkLZDdUy0msngEpbTbR5WTxPs-FBb90tAMHIMjgcensWwgrzR4LlvfXHprNHwlBv89lQNA6Xu8JTF0w5z82I8LRRcPDqQbMOBcgBsuVwROhaHnhRL814xqJM-aTr8vJnuH80NRmP84xPckVc-R_cgD4GmtqE72p09A9gCfrOv9cdU9tD0WHfldJotVpAOfbGXODgDfWwV_Axug__22K3pWlAJSfsl3fveNmGvp_8zT-3EDHLmNUKKxhdWxHqOkaqKD9w0kRQE-VUYifg7c-b0C-9DaAA_?></g></svg>